{
  "accessors": [
    {
      "bufferView": 2,
      "componentType": 5126,
      "count": 728,
      "max": [
        4.321511268615723,
        3.0960655212402344,
        0.9343717098236084
      ],
      "min": [
        -0.9965258240699768,
        -1.0,
        -1.0475435256958008
      ],
      "type": "VEC3"
    },
    {
      "bufferView": 2,
      "byteOffset": 8736,
      "componentType": 5126,
      "count": 728,
      "max": [
        1.0,
        1.0,
        1.0
      ],
      "min": [
        -1.0,
        -1.0,
        -1.0
      ],
      "type": "VEC3"
    },
    {
      "bufferView": 1,
      "componentType": 5126,
      "count": 728,
      "max": [
        1.0,
        1.0
      ],
      "min": [
        0.0,
        0.0
      ],
      "type": "VEC2"
    },
    {
      "bufferView": 0,
      "componentType": 5125,
      "count": 2208,
      "type": "SCALAR"
    },
    {
      "bufferView": 2,
      "byteOffset": 17472,
      "componentType": 5126,
      "count": 6800,
      "max": [
        30.850996017456055,
        1.025498867034912,
        1.0501188039779663
      ],
      "min": [
        -1.0226316452026367,
        -3.076387882232666,
        -0.6958231329917908
      ],
      "type": "VEC3"
    },
    {
      "bufferView": 2,
      "byteOffset": 99072,
      "componentType": 5126,
      "count": 6800,
      "max": [
        0.9896467328071594,
        0.9917508959770203,
        0.9994608163833618
      ],
      "min": [
        -0.9896464943885803,
        -0.9917508959770203,
        -0.9780272841453552
      ],
      "type": "VEC3"
    },
    {
      "bufferView": 1,
      "byteOffset": 5824,
      "componentType": 5126,
      "count": 6800,
      "max": [
        1.0,
        1.0
      ],
      "min": [
        0.0,
        0.0
      ],
      "type": "VEC2"
    },
    {
      "bufferView": 0,
      "byteOffset": 8832,
      "componentType": 5125,
      "count": 29088,
      "type": "SCALAR"
    },
    {
      "bufferView": 2,
      "byteOffset": 180672,
      "componentType": 5126,
      "count": 1224,
      "max": [
        0.7323180437088013,
        1.3148198127746582,
        0.06097304821014404
      ],
      "min": [
        -6.003233909606934,
        -0.26240453124046326,
        -0.06097305193543434
      ],
      "type": "VEC3"
    },
    {
      "bufferView": 2,
      "byteOffset": 195360,
      "componentType": 5126,
      "count": 1224,
      "max": [
        0.9898734092712402,
        0.9898765087127686,
        0.9898765087127686
      ],
      "min": [
        -0.9898734092712402,
        -0.9898765087127686,
        -0.6857069730758667
      ],
      "type": "VEC3"
    },
    {
      "bufferView": 1,
      "byteOffset": 60224,
      "componentType": 5126,
      "count": 1224,
      "max": [
        1.0,
        1.0
      ],
      "min": [
        0.0,
        0.0
      ],
      "type": "VEC2"
    },
    {
      "bufferView": 0,
      "byteOffset": 125184,
      "componentType": 5125,
      "count": 4512,
      "type": "SCALAR"
    },
    {
      "bufferView": 2,
      "byteOffset": 210048,
      "componentType": 5126,
      "count": 2754,
      "max": [
        0.26240453124046326,
        0.8305220603942871,
        0.060972925275564194
      ],
      "min": [
        -4.850455284118652,
        -0.26240453124046326,
        -0.060973044484853745
      ],
      "type": "VEC3"
    },
    {
      "bufferView": 2,
      "byteOffset": 243096,
      "componentType": 5126,
      "count": 2754,
      "max": [
        0.9898795485496521,
        0.9898734092712402,
        0.9898765087127686
      ],
      "min": [
        -0.9898734092712402,
        -0.9898734092712402,
        -0.6857069730758667
      ],
      "type": "VEC3"
    },
    {
      "bufferView": 1,
      "byteOffset": 70016,
      "componentType": 5126,
      "count": 2754,
      "max": [
        1.0,
        1.0
      ],
      "min": [
        0.0,
        0.0
      ],
      "type": "VEC2"
    },
    {
      "bufferView": 0,
      "byteOffset": 143232,
      "componentType": 5125,
      "count": 10152,
      "type": "SCALAR"
    },
    {
      "bufferView": 2,
      "byteOffset": 276144,
      "componentType": 5126,
      "count": 2420,
      "max": [
        0.13217486441135406,
        4.172325134277344e-07,
        0.32195115089416504
      ],
      "min": [
        -6.354066848754883,
        -1.3309555053710938,
        -1.4901161193847656e-08
      ],
      "type": "VEC3"
    },
    {
      "bufferView": 2,
      "byteOffset": 305184,
      "componentType": 5126,
      "count": 2420,
      "max": [
        0.9943749308586121,
        0.9945698380470276,
        0.9956597089767456
      ],
      "min": [
        -0.9944918155670166,
        -0.9946789145469666,
        -0.9901342988014221
      ],
      "type": "VEC3"
    },
    {
      "bufferView": 1,
      "byteOffset": 92048,
      "componentType": 5126,
      "count": 2420,
      "max": [
        0.9999999403953552,
        1.0
      ],
      "min": [
        0.0,
        0.0
      ],
      "type": "VEC2"
    },
    {
      "bufferView": 0,
      "byteOffset": 183840,
      "componentType": 5125,
      "count": 10200,
      "type": "SCALAR"
    },
    {
      "bufferView": 2,
      "byteOffset": 334224,
      "componentType": 5126,
      "count": 10912,
      "max": [
        7.497902870178223,
        7.152557373046875e-07,
        0.31939685344696045
      ],
      "min": [
        -0.23901081085205078,
        -2.106208324432373,
        -5.960464477539063e-08
      ],
      "type": "VEC3"
    },
    {
      "bufferView": 2,
      "byteOffset": 465168,
      "componentType": 5126,
      "count": 10912,
      "max": [
        1.0,
        1.0,
        0.9970315098762512
      ],
      "min": [
        -1.0,
        -0.9951868653297424,
        -0.9970315098762512
      ],
      "type": "VEC3"
    },
    {
      "bufferView": 1,
      "byteOffset": 111408,
      "componentType": 5126,
      "count": 10912,
      "max": [
        1.0,
        1.0
      ],
      "min": [
        0.0,
        0.0
      ],
      "type": "VEC2"
    },
    {
      "bufferView": 0,
      "byteOffset": 224640,
      "componentType": 5125,
      "count": 31548,
      "type": "SCALAR"
    },
    {
      "bufferView": 2,
      "byteOffset": 596112,
      "componentType": 5126,
      "count": 1078,
      "max": [
        4.2810587882995605,
        2.2270348072052,
        0.4895544648170471
      ],
      "min": [
        -4.301364898681641,
        -2.2270350456237793,
        -0.5555169582366943
      ],
      "type": "VEC3"
    },
    {
      "bufferView": 2,
      "byteOffset": 609048,
      "componentType": 5126,
      "count": 1078,
      "max": [
        1.0,
        1.0,
        1.0
      ],
      "min": [
        -1.0,
        -1.0,
        -0.9898734092712402
      ],
      "type": "VEC3"
    },
    {
      "bufferView": 1,
      "byteOffset": 198704,
      "componentType": 5126,
      "count": 1078,
      "max": [
        1.0,
        0.9999999403953552
      ],
      "min": [
        0.0,
        0.0
      ],
      "type": "VEC2"
    },
    {
      "bufferView": 0,
      "byteOffset": 350832,
      "componentType": 5125,
      "count": 2955,
      "type": "SCALAR"
    }
  ],
  "asset": {
    "extras": {
      "author": "Anderson Ferreira (https://sketchfab.com/AndersonFS)",
      "license": "CC-BY-4.0 (http://creativecommons.org/licenses/by/4.0/)",
      "source": "https://sketchfab.com/3d-models/teclado-musical-keyboard-9e662d12cafa4944857015f4c5da64bf",
      "title": "Teclado - Musical keyboard"
    },
    "generator": "Sketchfab-12.66.0",
    "version": "2.0"
  },
  "bufferViews": [
    {
      "buffer": 0,
      "byteLength": 362652,
      "name": "floatBufferViews",
      "target": 34963
    },
    {
      "buffer": 0,
      "byteLength": 207328,
      "byteOffset": 362652,
      "byteStride": 8,
      "name": "floatBufferViews",
      "target": 34962
    },
    {
      "buffer": 0,
      "byteLength": 621984,
      "byteOffset": 569980,
      "byteStride": 12,
      "name": "floatBufferViews",
      "target": 34962
    }
  ],
  "buffers": [
    {
      "byteLength": 1191964,
      "uri": "scene.bin"
    }
  ],
  "images": [
    {
      "uri": "textures/Balanco_baseColor.png"
    },
    {
      "uri": "textures/Balanco_metallicRoughness.png"
    },
    {
      "uri": "textures/Volumes_baseColor.png"
    },
    {
      "uri": "textures/Volumes_metallicRoughness.png"
    },
    {
      "uri": "textures/Configuracao_baseColor.png"
    },
    {
      "uri": "textures/Configuracao_metallicRoughness.png"
    },
    {
      "uri": "textures/Teclas_Pad_baseColor.png"
    },
    {
      "uri": "textures/Teclas_Pad_metallicRoughness.png"
    },
    {
      "uri": "textures/Teclas_Pretas_baseColor.png"
    },
    {
      "uri": "textures/Teclas_Pretas_metallicRoughness.png"
    },
    {
      "uri": "textures/Teclas_Brancas_baseColor.png"
    },
    {
      "uri": "textures/Teclas_Brancas_metallicRoughness.png"
    },
    {
      "uri": "textures/Caixa_baseColor.png"
    },
    {
      "uri": "textures/Caixa_metallicRoughness.png"
    }
  ],
  "materials": [
    {
      "doubleSided": true,
      "name": "Balanco",
      "occlusionTexture": {
        "index": 1
      },
      "pbrMetallicRoughness": {
        "baseColorTexture": {
          "index": 0
        },
        "metallicRoughnessTexture": {
          "index": 1
        },
        "roughnessFactor": 0.8590144647319556
      }
    },
    {
      "doubleSided": true,
      "name": "Volumes",
      "occlusionTexture": {
        "index": 3
      },
      "pbrMetallicRoughness": {
        "baseColorTexture": {
          "index": 2
        },
        "metallicRoughnessTexture": {
          "index": 3
        },
        "roughnessFactor": 0.7617316941186485
      }
    },
    {
      "doubleSided": true,
      "name": "Configuracao",
      "occlusionTexture": {
        "index": 5
      },
      "pbrMetallicRoughness": {
        "baseColorTexture": {
          "index": 4
        },
        "metallicRoughnessTexture": {
          "index": 5
        },
        "roughnessFactor": 0.7860523867719753
      }
    },
    {
      "doubleSided": true,
      "name": "Teclas_Pad",
      "occlusionTexture": {
        "index": 7
      },
      "pbrMetallicRoughness": {
        "baseColorTexture": {
          "index": 6
        },
        "metallicRoughnessTexture": {
          "index": 7
        },
        "roughnessFactor": 0.8042929062619704
      }
    },
    {
      "doubleSided": true,
      "name": "Teclas_Pretas",
      "occlusionTexture": {
        "index": 9
      },
      "pbrMetallicRoughness": {
        "baseColorTexture": {
          "index": 8
        },
        "metallicRoughnessTexture": {
          "index": 9
        }
      }
    },
    {
      "doubleSided": true,
      "name": "Teclas_Brancas",
      "occlusionTexture": {
        "index": 11
      },
      "pbrMetallicRoughness": {
        "baseColorTexture": {
          "index": 10
        },
        "metallicRoughnessTexture": {
          "index": 11
        },
        "roughnessFactor": 0.8954955037119458
      }
    },
    {
      "doubleSided": true,
      "name": "Caixa",
      "occlusionTexture": {
        "index": 13
      },
      "pbrMetallicRoughness": {
        "baseColorTexture": {
          "index": 12
        },
        "metallicFactor": 0.3300393995220984,
        "metallicRoughnessTexture": {
          "index": 13
        },
        "roughnessFactor": 0.6401282308520146
      }
    }
  ],
  "meshes": [
    {
      "name": "Balanco_Balanco_0",
      "primitives": [
        {
          "attributes": {
            "NORMAL": 1,
            "POSITION": 0,
            "TEXCOORD_0": 2
          },
          "indices": 3,
          "material": 0,
          "mode": 4
        }
      ]
    },
    {
      "name": "Volume_Volumes_0",
      "primitives": [
        {
          "attributes": {
            "NORMAL": 5,
            "POSITION": 4,
            "TEXCOORD_0": 6
          },
          "indices": 7,
          "material": 1,
          "mode": 4
        }
      ]
    },
    {
      "name": "Configuracao_Configuracao_0",
      "primitives": [
        {
          "attributes": {
            "NORMAL": 9,
            "POSITION": 8,
            "TEXCOORD_0": 10
          },
          "indices": 11,
          "material": 2,
          "mode": 4
        }
      ]
    },
    {
      "name": "Pad_Teclas Pad_0",
      "primitives": [
        {
          "attributes": {
            "NORMAL": 13,
            "POSITION": 12,
            "TEXCOORD_0": 14
          },
          "indices": 15,
          "material": 3,
          "mode": 4
        }
      ]
    },
    {
      "name": "Teclas Pretas_Teclas Pretas_0",
      "primitives": [
        {
          "attributes": {
            "NORMAL": 17,
            "POSITION": 16,
            "TEXCOORD_0": 18
          },
          "indices": 19,
          "material": 4,
          "mode": 4
        }
      ]
    },
    {
      "name": "Teclas Brancas_Teclas Brancas_0",
      "primitives": [
        {
          "attributes": {
            "NORMAL": 21,
            "POSITION": 20,
            "TEXCOORD_0": 22
          },
          "indices": 23,
          "material": 5,
          "mode": 4
        }
      ]
    },
    {
      "name": "Caixa_Caixa_0",
      "primitives": [
        {
          "attributes": {
            "NORMAL": 25,
            "POSITION": 24,
            "TEXCOORD_0": 26
          },
          "indices": 27,
          "material": 6,
          "mode": 4
        }
      ]
    }
  ],
  "nodes": [
    {
      "children": [
        1
      ],
      "matrix": [
        1.0,
        0.0,
        0.0,
        0.0,
        0.0,
        2.220446049250313e-16,
        -1.0,
        0.0,
        0.0,
        1.0,
        2.220446049250313e-16,
        0.0,
        0.0,
        0.0,
        0.0,
        1.0
      ],
      "name": "Sketchfab_model"
    },
    {
      "children": [
        2
      ],
      "matrix": [
        1.0,
        0.0,
        0.0,
        0.0,
        0.0,
        0.0,
        1.0,
        0.0,
        0.0,
        -1.0,
        0.0,
        0.0,
        0.0,
        0.0,
        0.0,
        1.0
      ],
      "name": "1f4e2f75023c492eb0b8ea4136044f51.fbx"
    },
    {
      "children": [
        3,
        5,
        7,
        9,
        11,
        13,
        15
      ],
      "name": "RootNode"
    },
    {
      "children": [
        4
      ],
      "matrix": [
        15.937016487121582,
        0.0,
        0.0,
        0.0,
        -0.0,
        -2.8249653651476303e-06,
        -17.339513778686296,
        0.0,
        0.0,
        9.045409202575565,
        -1.4736842126607544e-06,
        0.0,
        -402.0445861816406,
        128.75807189941406,
        -130.530517578125,
        1.0
      ],
      "name": "Balanco"
    },
    {
      "mesh": 0,
      "name": "Balanco_Balanco_0"
    },
    {
      "children": [
        6
      ],
      "matrix": [
        13.459952769873283,
        9.3617687838016e-17,
        -0.925455803555353,
        0.0,
        -0.9254558035553523,
        -5.897422968253914e-07,
        -13.45995276987327,
        0.0,
        -4.045295934572445e-08,
        13.491730690002427,
        -5.883532410118581e-07,
        0.0,
        -229.347900390625,
        130.443115234375,
        -213.62631225585938,
        1.0
      ],
      "name": "Volume"
    },
    {
      "mesh": 1,
      "name": "Volume_Volumes_0"
    },
    {
      "children": [
        8
      ],
      "matrix": [
        100.0,
        0.0,
        0.0,
        0.0,
        0.0,
        -1.629206793918314e-05,
        -99.99999999999868,
        0.0,
        0.0,
        99.99999999999868,
        -1.629206793918314e-05,
        0.0,
        287.5796813964844,
        118.20878601074219,
        -91.3641357421875,
        1.0
      ],
      "name": "Configuracao"
    },
    {
      "mesh": 2,
      "name": "Configuracao_Configuracao_0"
    },
    {
      "children": [
        10
      ],
      "matrix": [
        100.0,
        0.0,
        0.0,
        0.0,
        0.0,
        -1.629206793918314e-05,
        -99.99999999999868,
        0.0,
        0.0,
        99.99999999999868,
        -1.629206793918314e-05,
        0.0,
        230.07078552246094,
        118.20878601074219,
        -91.53288269042969,
        1.0
      ],
      "name": "Pad"
    },
    {
      "mesh": 3,
      "name": "Pad_Teclas Pad_0"
    },
    {
      "children": [
        12
      ],
      "matrix": [
        100.0,
        0.0,
        0.0,
        0.0,
        0.0,
        -1.629206793918314e-05,
        -99.99999999999868,
        0.0,
        0.0,
        99.99999999999868,
        -1.629206793918314e-05,
        0.0,
        254.32171630859375,
        73.87409973144531,
        -17.466426849365234,
        1.0
      ],
      "name": "Teclas Pretas"
    },
    {
      "mesh": 4,
      "name": "Teclas Pretas_Teclas Pretas_0"
    },
    {
      "children": [
        14
      ],
      "matrix": [
        100.0,
        0.0,
        0.0,
        0.0,
        -0.0,
        -1.629206793918314e-05,
        -99.99999999999868,
        0.0,
        0.0,
        99.99999999999868,
        -1.629206793918314e-05,
        0.0,
        -394.4402770996094,
        60.2767333984375,
        -17.4830322265625,
        1.0
      ],
      "name": "Teclas Brancas"
    },
    {
      "mesh": 5,
      "name": "Teclas Brancas_Teclas Brancas_0"
    },
    {
      "children": [
        16
      ],
      "matrix": [
        100.0,
        0.0,
        0.0,
        0.0,
        -0.0,
        -1.629206793918314e-05,
        -99.99999999999868,
        0.0,
        0.0,
        99.99999999999868,
        -1.629206793918314e-05,
        0.0,
        -30.470752716064453,
        72.41569519042969,
        -30.715251922607422,
        1.0
      ],
      "name": "Caixa"
    },
    {
      "mesh": 6,
      "name": "Caixa_Caixa_0"
    }
  ],
  "samplers": [
    {
      "magFilter": 9729,
      "minFilter": 9987,
      "wrapS": 10497,
      "wrapT": 10497
    }
  ],
  "scene": 0,
  "scenes": [
    {
      "name": "Sketchfab_Scene",
      "nodes": [
        0
      ]
    }
  ],
  "textures": [
    {
      "sampler": 0,
      "source": 0
    },
    {
      "sampler": 0,
      "source": 1
    },
    {
      "sampler": 0,
      "source": 2
    },
    {
      "sampler": 0,
      "source": 3
    },
    {
      "sampler": 0,
      "source": 4
    },
    {
      "sampler": 0,
      "source": 5
    },
    {
      "sampler": 0,
      "source": 6
    },
    {
      "sampler": 0,
      "source": 7
    },
    {
      "sampler": 0,
      "source": 8
    },
    {
      "sampler": 0,
      "source": 9
    },
    {
      "sampler": 0,
      "source": 10
    },
    {
      "sampler": 0,
      "source": 11
    },
    {
      "sampler": 0,
      "source": 12
    },
    {
      "sampler": 0,
      "source": 13
    }
  ]
}
